<?xml version="1.0" encoding="iso-8859-1"?>
<!-- Generator: Adobe Illustrator 19.0.0, SVG Export Plug-In . SVG Version: 6.00 Build 0)  -->
<svg version="1.1" id="Layer_1" xmlns="http://www.w3.org/2000/svg" xmlns:xlink="http://www.w3.org/1999/xlink" x="0px" y="0px"
	 viewBox="0 0 511.999 511.999" style="enable-background:new 0 0 511.999 511.999;" xml:space="preserve">
<path style="fill:#F2F2F2;" d="M325.652,272.635l-12.932,12.92c-31.328,31.328-82.115,31.328-113.431,0l-12.932-12.92l12.932-12.932
	c31.316-31.328,82.103-31.328,113.431,0L325.652,272.635z M282.687,272.635c0-14.741-11.954-26.695-26.683-26.695
	c-14.741,0-26.695,11.954-26.695,26.695c0,14.729,11.954,26.683,26.695,26.683C270.733,299.318,282.687,287.364,282.687,272.635z"/>
<path style="fill:#F95428;" d="M256.004,245.94c14.729,0,26.683,11.954,26.683,26.695c0,14.729-11.954,26.683-26.683,26.683
	c-14.741,0-26.695-11.954-26.695-26.683C229.309,257.894,241.263,245.94,256.004,245.94z"/>
<path style="fill:#F7B239;" d="M256.004,141.346l99.301,171.98H156.703L256.004,141.346z M312.72,285.555l12.932-12.92
	l-12.932-12.932c-31.328-31.328-82.115-31.328-113.431,0l-12.932,12.932l12.932,12.92
	C230.605,316.883,281.392,316.883,312.72,285.555z"/>
<path style="fill:#F2F2F2;" d="M494.49,192.097l-0.55,0.147l-112.844,30.24c-5.94-22.295-17.687-42.207-33.528-58.048l82.616-82.616
	l0.354-0.354C460.73,111.644,483.135,149.609,494.49,192.097z"/>
<path style="fill:#CCCCCC;" d="M494.49,192.097c5.439,20.376,8.348,41.803,8.348,63.903s-2.909,43.527-8.348,63.903l-0.55-0.147
	l-112.844-30.24c2.872-10.695,4.4-21.928,4.4-33.516c0-11.588-1.528-22.821-4.4-33.516l112.844-30.24L494.49,192.097z"/>
<path style="fill:#B3B3B3;" d="M493.94,319.755l0.55,0.147c-11.355,42.488-33.76,80.453-63.952,110.632l-0.354-0.354l-82.616-82.616
	c15.841-15.841,27.588-35.753,33.528-58.048L493.94,319.755z"/>
<path style="fill:#F95428;" d="M430.184,430.179l0.354,0.354c-30.191,30.191-68.156,52.596-110.632,63.952l-0.147-0.55
	l-30.24-112.844c22.295-5.94,42.207-17.687,58.048-33.528L430.184,430.179z"/>
<path style="fill:#E54728;" d="M319.76,493.935l0.147,0.55c-20.376,5.439-41.803,8.348-63.903,8.348s-43.514-2.909-63.903-8.348
	l0.147-0.55l30.24-112.832c10.683,2.86,21.928,4.388,33.516,4.388c11.588,0,22.821-1.528,33.516-4.4L319.76,493.935z"/>
<path style="fill:#CC321D;" d="M222.488,381.103l-30.24,112.832l-0.147,0.55c-42.475-11.355-80.453-33.76-110.632-63.952
	l0.354-0.354l82.616-82.616C180.282,363.404,200.193,375.151,222.488,381.103z"/>
<path style="fill:#B27214;" d="M430.539,81.465l-0.354,0.354l-82.616,82.616c-15.841-15.841-35.753-27.588-58.048-33.528
	l30.24-112.844l0.147-0.55C362.382,28.869,400.348,51.274,430.539,81.465z"/>
<path style="fill:#E09B2D;" d="M319.907,17.513l-0.147,0.55l-30.24,112.844c-10.695-2.872-21.928-4.4-33.516-4.4
	c-11.588,0-22.833,1.528-33.516,4.388l-30.24-112.832l-0.147-0.55c20.388-5.439,41.803-8.348,63.903-8.348
	S299.531,12.074,319.907,17.513z"/>
<path style="fill:#F7B239;" d="M192.248,18.063l30.24,112.832c-22.295,5.953-42.207,17.699-58.048,33.54L81.824,81.819l-0.354-0.354
	c30.179-30.191,68.156-52.596,110.632-63.952L192.248,18.063z"/>
<path style="fill:#168BBF;" d="M81.824,81.819l82.616,82.616c-15.841,15.841-27.588,35.753-33.528,58.048l-112.844-30.24
	l-0.55-0.147c11.355-42.488,33.76-80.453,63.952-110.632L81.824,81.819z"/>
<path style="fill:#2197D8;" d="M18.068,192.243l112.844,30.24c-2.872,10.695-4.4,21.928-4.4,33.516s1.528,22.821,4.4,33.516
	l-112.844,30.24l-0.55,0.147c-5.439-20.376-8.348-41.803-8.348-63.903s2.909-43.527,8.348-63.903L18.068,192.243z"/>
<path style="fill:#2BA5F7;" d="M130.912,289.515c5.94,22.295,17.687,42.207,33.528,58.048l-82.616,82.616l-0.354,0.354
	c-30.191-30.179-52.596-68.144-63.952-110.632l0.55-0.147L130.912,289.515z"/>
<path style="fill:#333333;" d="M255.999,0C114.841,0,0,114.841,0,255.999s114.841,255.999,255.999,255.999
	c141.159,0,255.999-114.841,255.999-255.999S397.159,0,255.999,0z M493.665,255.999c0,18.076-2.039,35.683-5.879,52.613
	l-95.766-25.661c1.725-8.721,2.638-17.732,2.638-26.952c0-9.22-0.913-18.23-2.638-26.951l95.766-25.661
	C491.626,220.318,493.665,237.925,493.665,255.999z M483.043,185.676l-95.767,25.661c-5.915-17.34-15.179-33.139-27.011-46.636
	l70.058-70.058C454.161,120.377,472.396,151.37,483.043,185.676z M347.303,360.262l70.058,70.058
	c-25.733,23.838-56.725,42.072-91.031,52.721l-25.661-95.768C318.009,381.358,333.808,372.094,347.303,360.262z M255.999,376.323
	c-41.806,0-78.695-21.437-100.268-53.889c0.32,0.034,0.643,0.065,0.969,0.065h198.598c0.326,0,0.649-0.031,0.969-0.065
	C334.695,354.886,297.806,376.323,255.999,376.323z M164.702,360.265c13.496,11.832,29.296,21.095,46.636,27.011l-25.661,95.768
	c-34.306-10.648-65.3-28.882-91.034-52.72L164.702,360.265z M164.703,151.732L94.645,81.674
	c25.735-23.836,56.728-42.071,91.033-52.718l25.661,95.767C194,130.639,178.199,139.901,164.703,151.732z M248.628,135.909
	c-0.2,0.273-0.395,0.55-0.567,0.846l-99.298,171.99c-0.169,0.291-0.308,0.594-0.442,0.898c-8.083-16.16-12.642-34.378-12.642-53.644
	C135.677,192.13,185.703,139.733,248.628,135.909z M312.682,272.629l-6.448,6.448c-6.312,6.312-13.532,11.17-21.238,14.604
	c4.307-5.916,6.857-13.19,6.857-21.052s-2.55-15.136-6.857-21.052c7.705,3.436,14.926,8.292,21.238,14.604L312.682,272.629z
	 M255.999,255.111c9.66,0,17.519,7.859,17.519,17.519s-7.859,17.519-17.519,17.519c-9.66,0-17.519-7.859-17.519-17.519
	S246.339,255.111,255.999,255.111z M227.004,293.682c-7.705-3.436-14.926-8.292-21.238-14.604l-6.448-6.448l6.448-6.448
	c6.312-6.312,13.532-11.168,21.238-14.604c-4.307,5.916-6.857,13.19-6.857,21.052C220.146,280.492,222.696,287.766,227.004,293.682z
	 M184.418,283.658l8.384,8.384c4.674,4.674,9.752,8.7,15.107,12.12h-35.33L184.418,283.658z M319.198,292.042l8.384-8.384
	l11.838,20.504h-35.329C309.448,300.742,314.524,296.717,319.198,292.042z M209.6,240.04l46.399-80.366l46.399,80.366
	C273.998,222.788,238.002,222.788,209.6,240.04z M363.681,309.644c-0.133-0.304-0.274-0.606-0.442-0.897l-99.3-171.99
	c-0.171-0.297-0.367-0.574-0.567-0.846c62.925,3.822,112.951,56.22,112.951,120.09C376.323,275.266,371.764,293.483,363.681,309.644
	z M347.301,151.737c-13.494-11.832-29.294-21.095-46.631-27.011l25.661-95.768c34.304,10.649,65.296,28.883,91.03,52.72
	L347.301,151.737z M308.619,24.215l-25.66,95.767c-8.724-1.726-17.736-2.64-26.959-2.64c-9.22,0-18.23,0.913-26.95,2.638
	l-25.661-95.766c16.929-3.841,34.537-5.879,52.611-5.879C274.077,18.335,291.687,20.374,308.619,24.215z M81.68,94.639
	l70.058,70.058c-11.833,13.496-21.097,29.295-27.012,46.635l-95.768-25.661C39.607,151.365,57.842,120.372,81.68,94.639z
	 M18.335,255.999c0-18.078,2.039-35.687,5.881-52.618l95.766,25.66c-1.726,8.725-2.639,17.737-2.639,26.958
	c0,9.221,0.913,18.233,2.639,26.955l-95.766,25.661C20.374,291.685,18.335,274.076,18.335,255.999z M28.958,326.327l95.767-25.661
	c5.916,17.34,15.179,33.139,27.012,46.635l-70.058,70.06C57.841,391.625,39.605,360.633,28.958,326.327z M203.388,487.786
	l25.66-95.766c8.721,1.725,17.731,2.638,26.951,2.638c9.224,0,18.236-0.914,26.961-2.64l25.66,95.766
	c-16.933,3.843-34.543,5.882-52.621,5.882C237.925,493.665,220.318,491.626,203.388,487.786z M430.326,417.355l-70.058-70.058
	c11.831-13.496,21.094-29.294,27.008-46.633l95.767,25.661C472.396,360.63,454.162,391.621,430.326,417.355z"/>
<g>
</g>
<g>
</g>
<g>
</g>
<g>
</g>
<g>
</g>
<g>
</g>
<g>
</g>
<g>
</g>
<g>
</g>
<g>
</g>
<g>
</g>
<g>
</g>
<g>
</g>
<g>
</g>
<g>
</g>
</svg>
