<?xml version="1.0" encoding="iso-8859-1"?>
<!-- Generator: Adobe Illustrator 19.0.0, SVG Export Plug-In . SVG Version: 6.00 Build 0)  -->
<svg version="1.1" id="Layer_1" xmlns="http://www.w3.org/2000/svg" xmlns:xlink="http://www.w3.org/1999/xlink" x="0px" y="0px"
	 viewBox="0 0 512 512" style="enable-background:new 0 0 512 512;" xml:space="preserve">
<path style="fill:#C1E8E6;" d="M106.213,264.17c-4.511,0-8.168-3.656-8.17-8.166h-16.34c-0.002,4.51-3.659,8.166-8.17,8.166H16.34
	V495.66H495.66V264.17H106.213z M471.149,388.085H40.851c-4.512,0-8.17-3.658-8.17-8.17c0-4.512,3.658-8.17,8.17-8.17H165.22
	v-83.064c0-4.512,3.658-8.17,8.17-8.17c4.512,0,8.17,3.658,8.17,8.17v83.064h148.88v-83.064c0-4.512,3.658-8.17,8.17-8.17
	s8.17,3.658,8.17,8.17v83.064h124.368c4.512,0,8.17,3.658,8.17,8.17C479.319,384.427,475.661,388.085,471.149,388.085z"/>
<path style="fill:#F2EBD9;" d="M98.043,256c0-4.512,3.658-8.17,8.17-8.17H495.66V16.34H16.34V247.83h57.191
	c4.512,0,8.17,3.658,8.17,8.17C81.702,256.004,98.043,256.004,98.043,256z M379.915,40.851c0-4.512,3.658-8.17,8.17-8.17h83.064
	c4.512,0,8.17,3.658,8.17,8.17v74.894c0,4.512-3.658,8.17-8.17,8.17h-83.064c-4.512,0-8.17-3.658-8.17-8.17V40.851z
	 M379.915,148.426c0-4.512,3.658-8.17,8.17-8.17h83.064c4.512,0,8.17,3.658,8.17,8.17v74.894c0,4.512-3.658,8.17-8.17,8.17h-83.064
	c-4.512,0-8.17-3.658-8.17-8.17V148.426z M264.17,40.851c0-4.512,3.658-8.17,8.17-8.17h83.064c4.512,0,8.17,3.658,8.17,8.17v74.894
	c0,4.512-3.658,8.17-8.17,8.17H272.34c-4.512,0-8.17-3.658-8.17-8.17V40.851z M264.17,148.426c0-4.512,3.658-8.17,8.17-8.17h83.064
	c4.512,0,8.17,3.658,8.17,8.17v74.894c0,4.512-3.658,8.17-8.17,8.17H272.34c-4.512,0-8.17-3.658-8.17-8.17V148.426z M148.426,40.851
	c0-4.512,3.658-8.17,8.17-8.17h83.064c4.512,0,8.17,3.658,8.17,8.17v74.894c0,4.512-3.658,8.17-8.17,8.17h-83.064
	c-4.512,0-8.17-3.658-8.17-8.17V40.851z M148.426,148.426c0-4.512,3.658-8.17,8.17-8.17h83.064c4.512,0,8.17,3.658,8.17,8.17v74.894
	c0,4.512-3.658,8.17-8.17,8.17h-83.064c-4.512,0-8.17-3.658-8.17-8.17V148.426z M32.681,40.851c0-4.512,3.658-8.17,8.17-8.17h83.064
	c4.512,0,8.17,3.658,8.17,8.17v74.894c0,4.512-3.658,8.17-8.17,8.17H40.851c-4.512,0-8.17-3.658-8.17-8.17V40.851z M40.851,231.489
	c-4.512,0-8.17-3.658-8.17-8.17v-74.894c0-4.512,3.658-8.17,8.17-8.17h83.064c4.512,0,8.17,3.658,8.17,8.17v74.894
	c0,4.512-3.658,8.17-8.17,8.17H40.851z"/>
<rect x="49.021" y="156.596" style="fill:#185F8D;" width="66.723" height="58.553"/>
<rect x="164.766" y="156.596" style="fill:#6DA8D6;" width="66.723" height="58.553"/>
<rect x="280.511" y="156.596" style="fill:#98D9D5;" width="66.723" height="58.553"/>
<rect x="396.255" y="156.596" style="fill:#FFFFFF;" width="66.723" height="58.553"/>
<rect x="49.021" y="49.021" style="fill:#F2484B;" width="66.723" height="58.553"/>
<rect x="164.766" y="49.021" style="fill:#FF6E1D;" width="66.723" height="58.553"/>
<rect x="280.511" y="49.021" style="fill:#FF9D49;" width="66.723" height="58.553"/>
<rect x="396.255" y="49.021" style="fill:#FFCC75;" width="66.723" height="58.553"/>
<g>
	<path style="fill:#082947;" d="M503.83,0H8.17C3.658,0,0,3.658,0,8.17v495.66c0,4.512,3.658,8.17,8.17,8.17h495.66
		c4.512,0,8.17-3.658,8.17-8.17V8.17C512,3.658,508.342,0,503.83,0z M16.34,495.66V264.17h57.191c4.511,0,8.168-3.656,8.17-8.166
		c0-4.516-3.658-8.175-8.17-8.175H16.34V16.34H495.66V247.83H106.213c-4.512,0-8.17,3.658-8.17,8.17
		c0.002,4.514,3.659,8.17,8.17,8.17H495.66V495.66H16.34z"/>
	<path style="fill:#082947;" d="M471.149,371.745H346.78v-83.064c0-4.512-3.658-8.17-8.17-8.17c-4.512,0-8.17,3.658-8.17,8.17
		v83.064H181.561v-83.064c0-4.512-3.658-8.17-8.17-8.17c-4.512,0-8.17,3.658-8.17,8.17v83.064H40.851c-4.512,0-8.17,3.658-8.17,8.17
		c0,4.512,3.658,8.17,8.17,8.17h430.298c4.512,0,8.17-3.658,8.17-8.17C479.319,375.403,475.661,371.745,471.149,371.745z"/>
	<path style="fill:#082947;" d="M272.34,123.915h83.064c4.512,0,8.17-3.658,8.17-8.17V40.851c0-4.512-3.658-8.17-8.17-8.17H272.34
		c-4.512,0-8.17,3.658-8.17,8.17v74.894C264.17,120.258,267.828,123.915,272.34,123.915z M280.511,49.021h66.723v58.553h-66.723
		V49.021z"/>
	<path style="fill:#082947;" d="M272.34,231.489h83.064c4.512,0,8.17-3.658,8.17-8.17v-74.894c0-4.512-3.658-8.17-8.17-8.17H272.34
		c-4.512,0-8.17,3.658-8.17,8.17v74.894C264.17,227.832,267.828,231.489,272.34,231.489z M280.511,156.596h66.723v58.553h-66.723
		V156.596z"/>
	<path style="fill:#082947;" d="M156.596,123.915h83.064c4.512,0,8.17-3.658,8.17-8.17V40.851c0-4.512-3.658-8.17-8.17-8.17h-83.064
		c-4.512,0-8.17,3.658-8.17,8.17v74.894C148.426,120.258,152.084,123.915,156.596,123.915z M164.766,49.021h66.723v58.553h-66.723
		V49.021z"/>
	<path style="fill:#082947;" d="M156.596,231.489h83.064c4.512,0,8.17-3.658,8.17-8.17v-74.894c0-4.512-3.658-8.17-8.17-8.17
		h-83.064c-4.512,0-8.17,3.658-8.17,8.17v74.894C148.426,227.832,152.084,231.489,156.596,231.489z M164.766,156.596h66.723v58.553
		h-66.723V156.596z"/>
	<path style="fill:#082947;" d="M388.085,123.915h83.064c4.512,0,8.17-3.658,8.17-8.17V40.851c0-4.512-3.658-8.17-8.17-8.17h-83.064
		c-4.512,0-8.17,3.658-8.17,8.17v74.894C379.915,120.258,383.573,123.915,388.085,123.915z M396.255,49.021h66.723v58.553h-66.723
		V49.021z"/>
	<path style="fill:#082947;" d="M388.085,231.489h83.064c4.512,0,8.17-3.658,8.17-8.17v-74.894c0-4.512-3.658-8.17-8.17-8.17
		h-83.064c-4.512,0-8.17,3.658-8.17,8.17v74.894C379.915,227.832,383.573,231.489,388.085,231.489z M396.255,156.596h66.723v58.553
		h-66.723V156.596z"/>
	<path style="fill:#082947;" d="M40.851,123.915h83.064c4.512,0,8.17-3.658,8.17-8.17V40.851c0-4.512-3.658-8.17-8.17-8.17H40.851
		c-4.512,0-8.17,3.658-8.17,8.17v74.894C32.681,120.258,36.339,123.915,40.851,123.915z M49.021,49.021h66.723v58.553H49.021V49.021
		z"/>
	<path style="fill:#082947;" d="M132.085,223.319v-74.894c0-4.512-3.658-8.17-8.17-8.17H40.851c-4.512,0-8.17,3.658-8.17,8.17
		v74.894c0,4.512,3.658,8.17,8.17,8.17h83.064C128.427,231.489,132.085,227.832,132.085,223.319z M115.745,215.149H49.021v-58.553
		h66.723V215.149z"/>
</g>
<g>
</g>
<g>
</g>
<g>
</g>
<g>
</g>
<g>
</g>
<g>
</g>
<g>
</g>
<g>
</g>
<g>
</g>
<g>
</g>
<g>
</g>
<g>
</g>
<g>
</g>
<g>
</g>
<g>
</g>
</svg>
