<?xml version="1.0" encoding="iso-8859-1"?>
<!-- Generator: Adobe Illustrator 19.0.0, SVG Export Plug-In . SVG Version: 6.00 Build 0)  -->
<svg version="1.1" id="Layer_1" xmlns="http://www.w3.org/2000/svg" xmlns:xlink="http://www.w3.org/1999/xlink" x="0px" y="0px"
	 viewBox="0 0 512 512" style="enable-background:new 0 0 512 512;" xml:space="preserve">
<path style="fill:#95C11F;" d="M200.379,10.89v493.304h246.652V10.89L200.379,10.89L200.379,10.89z M375.423,472.368
	c-21.972,0-39.783-17.811-39.783-39.783c0-21.972,17.811-39.783,39.783-39.783c21.971,0,39.783,17.811,39.783,39.783
	S397.394,472.368,375.423,472.368z"/>
<polyline style="fill:#AACD4C;" points="200.379,504.195 200.379,10.89 447.031,10.89 "/>
<circle style="fill:#6A86AC;" cx="271.993" cy="74.537" r="23.869"/>
<circle style="fill:#889EBD;" cx="375.421" cy="74.537" r="23.869"/>
<circle style="fill:#6A86AC;" cx="375.421" cy="162.062" r="23.869"/>
<circle style="fill:#889EBD;" cx="271.993" cy="162.062" r="23.869"/>
<g>
	<circle style="fill:#6A86AC;" cx="271.993" cy="249.587" r="23.869"/>
	<circle style="fill:#6A86AC;" cx="271.993" cy="424.627" r="23.869"/>
</g>
<circle style="fill:#889EBD;" cx="375.421" cy="249.587" r="23.869"/>
<circle style="fill:#6A86AC;" cx="375.421" cy="337.112" r="23.869"/>
<circle style="fill:#889EBD;" cx="271.993" cy="337.112" r="23.869"/>
<path style="fill:#6A86AC;" d="M128.771,106.368c0,17.577-14.249,31.826-31.826,31.826s-31.826-14.25-31.826-31.826
	s31.826-87.522,31.826-87.522S128.771,88.792,128.771,106.368z"/>
<polygon style="fill:#95C11F;" points="120.814,217.76 73.075,217.76 81.031,146.151 112.858,146.151 "/>
<path style="fill:#6A86AC;" d="M120.814,217.76v262.565c0,13.183-10.687,23.869-23.87,23.869l0,0
	c-13.183,0-23.87-10.687-23.87-23.869V217.76"/>
<path style="fill:#889EBD;" d="M96.944,504.195L96.944,504.195c-13.183,0-23.87-10.687-23.87-23.869V217.761h23.87"/>
<g>
	<path style="fill:#1D1D1B;" d="M136.727,209.954H127.8l-6.221-55.998h7.192v-15.611h-8.452c9.847-7.217,16.257-18.86,16.257-31.977
		c0-18.341-27.095-78.817-32.528-90.754L96.944,0L89.84,15.614c-0.08,0.177-8.118,17.865-16.045,37.478
		c-16.482,40.774-16.482,50.185-16.482,53.277c0,13.116,6.41,24.76,16.257,31.977h-8.452v15.611h7.192l-6.221,55.998h-8.927v15.611
		h8.108v254.759C65.271,497.791,79.48,512,96.944,512c17.465,0,31.676-14.209,31.676-31.674V225.566h8.108v-15.612H136.727z
		 M96.944,38.138c11.24,26.063,24.021,58.76,24.021,68.23c0,13.245-10.776,24.02-24.021,24.02s-24.02-10.776-24.02-24.02
		C72.924,96.903,85.705,64.202,96.944,38.138z M88.018,153.957h17.854l6.221,55.998H81.796L88.018,153.957z M113.008,480.324
		c0,8.858-7.207,16.064-16.065,16.064c-8.858,0-16.064-7.207-16.064-16.064V225.565h32.127v254.759H113.008z"/>
	<path style="fill:#1D1D1B;" d="M454.838,512H192.574V3.085h262.263V512z M208.185,496.389h231.041V18.696H208.185V496.389z"/>
	<path style="fill:#1D1D1B;" d="M375.423,480.174c-26.24,0-47.588-21.348-47.588-47.588c0-26.24,21.348-47.588,47.588-47.588
		c26.24,0,47.588,21.348,47.588,47.588C423.011,458.825,401.663,480.174,375.423,480.174z M375.423,400.609
		c-17.632,0-31.977,14.344-31.977,31.977c0,17.632,14.344,31.977,31.977,31.977c17.632,0,31.977-14.344,31.977-31.977
		S393.055,400.609,375.423,400.609z"/>
	<path style="fill:#1D1D1B;" d="M271.988,106.218c-17.465,0-31.676-14.209-31.676-31.676c0-17.465,14.209-31.676,31.676-31.676
		c17.466,0,31.676,14.209,31.676,31.676C303.664,92.008,289.454,106.218,271.988,106.218z M271.988,58.477
		c-8.858,0-16.065,7.207-16.065,16.065s7.207,16.065,16.065,16.065c8.858,0,16.065-7.207,16.065-16.065
		S280.846,58.477,271.988,58.477z"/>
	<path style="fill:#1D1D1B;" d="M375.423,106.218c-17.465,0-31.676-14.209-31.676-31.676c0-17.465,14.209-31.676,31.676-31.676
		c17.465,0,31.675,14.209,31.675,31.676C407.097,92.008,392.888,106.218,375.423,106.218z M375.423,58.477
		c-8.858,0-16.065,7.207-16.065,16.065s7.207,16.065,16.065,16.065s16.064-7.207,16.064-16.065S384.28,58.477,375.423,58.477z"/>
	<path style="fill:#1D1D1B;" d="M271.988,193.739c-17.465,0-31.676-14.209-31.676-31.676s14.209-31.675,31.676-31.675
		c17.466,0,31.676,14.209,31.676,31.675S289.454,193.739,271.988,193.739z M271.988,145.999c-8.858,0-16.065,7.207-16.065,16.065
		c0,8.858,7.207,16.065,16.065,16.065c8.858,0,16.065-7.207,16.065-16.065C288.053,153.206,280.846,145.999,271.988,145.999z"/>
	<path style="fill:#1D1D1B;" d="M375.423,193.739c-17.465,0-31.676-14.209-31.676-31.676s14.209-31.675,31.676-31.675
		c17.465,0,31.675,14.209,31.675,31.675S392.888,193.739,375.423,193.739z M375.423,145.999c-8.858,0-16.065,7.207-16.065,16.065
		c0,8.858,7.207,16.065,16.065,16.065s16.064-7.207,16.064-16.065C391.486,153.206,384.28,145.999,375.423,145.999z"/>
	<path style="fill:#1D1D1B;" d="M271.988,281.26c-17.465,0-31.676-14.209-31.676-31.676c0-17.465,14.209-31.676,31.676-31.676
		c17.466,0,31.676,14.209,31.676,31.676C303.664,267.051,289.454,281.26,271.988,281.26z M271.988,233.521
		c-8.858,0-16.065,7.207-16.065,16.065c0,8.858,7.207,16.065,16.065,16.065c8.858,0,16.065-7.207,16.065-16.065
		C288.053,240.728,280.846,233.521,271.988,233.521z"/>
	<path style="fill:#1D1D1B;" d="M375.423,281.26c-17.465,0-31.676-14.209-31.676-31.676c0-17.465,14.209-31.676,31.676-31.676
		c17.465,0,31.675,14.209,31.675,31.676C407.097,267.051,392.888,281.26,375.423,281.26z M375.423,233.521
		c-8.858,0-16.065,7.207-16.065,16.065c0,8.858,7.207,16.065,16.065,16.065s16.064-7.207,16.064-16.065
		C391.486,240.728,384.28,233.521,375.423,233.521z"/>
	<path style="fill:#1D1D1B;" d="M271.988,368.783c-17.465,0-31.676-14.209-31.676-31.674c0-17.464,14.209-31.675,31.676-31.675
		c17.466,0,31.676,14.209,31.676,31.675C303.664,354.572,289.454,368.783,271.988,368.783z M271.988,321.043
		c-8.858,0-16.065,7.206-16.065,16.064c0,8.858,7.207,16.064,16.065,16.064c8.858,0,16.065-7.207,16.065-16.064
		C288.053,328.249,280.846,321.043,271.988,321.043z"/>
	<path style="fill:#1D1D1B;" d="M271.988,456.304c-17.465,0-31.676-14.209-31.676-31.676c0-17.465,14.209-31.674,31.676-31.674
		c17.466,0,31.676,14.209,31.676,31.674C303.664,442.095,289.454,456.304,271.988,456.304z M271.988,408.565
		c-8.858,0-16.065,7.207-16.065,16.064c0,8.858,7.207,16.065,16.065,16.065c8.858,0,16.065-7.207,16.065-16.065
		C288.053,415.772,280.846,408.565,271.988,408.565z"/>
	<path style="fill:#1D1D1B;" d="M375.423,368.783c-17.465,0-31.676-14.209-31.676-31.674c0-17.464,14.209-31.675,31.676-31.675
		c17.465,0,31.675,14.209,31.675,31.675C407.097,354.572,392.888,368.783,375.423,368.783z M375.423,321.043
		c-8.858,0-16.065,7.206-16.065,16.064c0,8.858,7.207,16.064,16.065,16.064s16.064-7.207,16.064-16.064
		C391.486,328.249,384.28,321.043,375.423,321.043z"/>
</g>
<g>
</g>
<g>
</g>
<g>
</g>
<g>
</g>
<g>
</g>
<g>
</g>
<g>
</g>
<g>
</g>
<g>
</g>
<g>
</g>
<g>
</g>
<g>
</g>
<g>
</g>
<g>
</g>
<g>
</g>
</svg>
